# xmcd
#
# Track frame offsets:
#	150
#	20396
#	39125
#	54061
#	72749
#	97277
#	113239
#	125462
#	156290
#	172550
#	188298
#	206152
#	226709
#	240455
#	257147
#	275097
#	296117
#
# Disc length: 4180 seconds
#
# Revision: 1
# Processed by: cddbd v1.4PL0 Copyright (c) Steve Scherf et al.
# Submitted via: audiograbber 1.82.01
#
DISCID=e7105211
DTITLE=Various Artist - HVY.13.Sumosonic
DYEAR=2003
DGENRE=Rock
TTITLE0=The Roots - The Seed (feat. Cody Chesnutt)
TTITLE1=Tommy Guerrero - Organism
TTITLE2=Beans - Phreek The Beat
TTITLE3=A.R.E. Weapons - Don't Be Scared
TTITLE4=Wildchild - Secondary Protocol
TTITLE5=Audio Bullys - We Don't Care
TTITLE6=M1 - Tribute To Fred Hampton
TTITLE7=Ghost Cauldron - Rush Nowhere
TTITLE8=Side Stepper - Mas Papayas
TTITLE9=King Britt - Spaces (feat. Quasimoto)
TTITLE10=Soul Supreme - Still Searchin' (feat. Reks and Noel)
TTITLE11=Little Brother - The Way We Do It
TTITLE12=A Smash - Last Night
TTITLE13=Spacek - It's Not Gonna Happen
TTITLE14=Manitoba - Hendrix With Ko
TTITLE15=Zion I - Mind Blow
TTITLE16=Saul Williams - Not In Your Name (DJ Spooky Remix)
EXTD=
EXTT0=
EXTT1=
EXTT2=
EXTT3=
EXTT4=
EXTT5=
EXTT6=
EXTT7=
EXTT8=
EXTT9=
EXTT10=
EXTT11=
EXTT12=
EXTT13=
EXTT14=
EXTT15=
EXTT16=
PLAYORDER=
